<svg version="1.1" viewBox="0.0 0.0 480.0 480.0" fill="none" stroke="none" stroke-linecap="square" stroke-miterlimit="10" xmlns:xlink="http://www.w3.org/1999/xlink" xmlns="http://www.w3.org/2000/svg"><clipPath id="p.0"><path d="m0 0l480.0 0l0 480.0l-480.0 0l0 -480.0z" clip-rule="nonzero"/></clipPath><g clip-path="url(#p.0)"><path fill="#000000" fill-opacity="0.0" d="m0 0l480.0 0l0 480.0l-480.0 0z" fill-rule="evenodd"/><path fill="#270b2d" fill-opacity="0.6646" d="m119.45144 438.81973l-112.10457 -204.03198l120.42978 -198.64462l232.74567 5.0387955l112.10458 204.03197l-120.42978 198.64462z" fill-rule="evenodd"/><path fill="#471350" fill-opacity="0.8165" d="m45.21259 292.1897l52.166065 -194.84627l194.8175 -52.197044l142.59122 142.66537l-52.166046 194.8463l-194.81752 52.19702z" fill-rule="evenodd"/><path fill="#661a73" fill-opacity="0.8101" d="m95.4711 156.55576l144.55495 -83.49836l144.52782 83.43777l-0.043395996 166.92674l-144.55495 83.49835l-144.52783 -83.437775z" fill-rule="evenodd"/><path fill="#872299" fill-opacity="0.8165" d="m145.35599 265.3356l25.345032 -94.64104l94.664276 -25.36354l69.25052 69.29591l-25.345032 94.64104l-94.664276 25.363525z" fill-rule="evenodd"/><path stroke="#661a73" stroke-width="1.0" stroke-linejoin="round" stroke-linecap="butt" d="m145.35599 265.3356l25.345032 -94.64104l94.664276 -25.36354l69.25052 69.29591l-25.345032 94.64104l-94.664276 25.363525z" fill-rule="evenodd"/><path fill="#9726ab" fill-opacity="0.8101" d="m183.67113 224.87788l41.21985 -41.23271l56.36342 15.126892l15.0781555 56.34204l-41.219864 41.232697l-56.363434 -15.126862z" fill-rule="evenodd"/></g></svg>