<svg version="1.1" viewBox="0.0 0.0 300.0 300.0" fill="none" stroke="none" stroke-linecap="square" stroke-miterlimit="10" xmlns:xlink="http://www.w3.org/1999/xlink" xmlns="http://www.w3.org/2000/svg"><clipPath id="p.0"><path d="m0 0l300.0 0l0 300.0l-300.0 0l0 -300.0z" clip-rule="nonzero"/></clipPath><g clip-path="url(#p.0)"><path fill="#000000" fill-opacity="0.0" d="m0 0l300.0 0l0 300.0l-300.0 0z" fill-rule="evenodd"/><path fill="#000000" fill-opacity="0.0" d="m4.929134 150.0l73.83386 -127.9527l142.47403 0l73.83385 127.9527l-73.83385 127.9527l-142.47403 0z" fill-rule="evenodd"/><path stroke="#f3f3f3" stroke-width="8.0" stroke-linejoin="round" stroke-linecap="butt" d="m4.929134 150.0l73.83386 -127.9527l142.47403 0l73.83385 127.9527l-73.83385 127.9527l-142.47403 0z" fill-rule="evenodd"/><path fill="#000000" fill-opacity="0.0" d="m-0.51968503 128.99213l301.03937 0l0 42.015747l-301.03937 0z" fill-rule="evenodd"/><path fill="#f3f3f3" d="m79.97981 173.04l0 -44.796875l6.921875 0l0 44.796875l-6.921875 0zm-29.25 0l0 -44.796875l6.921875 0l0 44.796875l-6.921875 0zm3.015625 -19.015625l0 -6.640625l29.3125 0l0 6.640625l-29.3125 0zm45.688293 19.015625l0 -44.796875l28.234375 0l0 6.65625l-21.3125 0l0 31.484375l21.3125 0l0 6.65625l-28.234375 0zm3.140625 -19.640625l0 -6.65625l21.5625 0l0 6.65625l-21.5625 0zm63.42093 19.640625l-13.890625 -20.09375l-17.78125 -24.703125l8.765625 0l13.5625 19.84375l18.109375 24.953125l-8.765625 0zm-32.0 0l17.09375 -24.390625l4.28125 5.0625l-13.25 19.328125l-8.125 0zm23.6875 -20.796875l-4.234375 -4.859375l12.546875 -19.140625l8.125 0l-16.4375 24.0zm24.886795 20.796875l0 -44.796875l28.234375 0l0 6.65625l-21.3125 0l0 31.484375l21.3125 0l0 6.65625l-28.234375 0zm3.140625 -19.640625l0 -6.65625l21.5625 0l0 6.65625l-21.5625 0zm49.98343 20.28125q-3.640625 0 -6.75 -0.953125q-3.109375 -0.96875 -5.640625 -2.921875q-2.515625 -1.953125 -4.5 -4.828125l4.734375 -5.4375q3.140625 4.46875 6.015625 6.203125q2.875 1.734375 6.84375 1.734375q2.4375 0 4.421875 -0.765625q1.984375 -0.78125 3.125 -2.125q1.15625 -1.34375 1.15625 -3.0625q0 -1.15625 -0.390625 -2.171875q-0.375 -1.03125 -1.171875 -1.859375q-0.796875 -0.84375 -2.046875 -1.546875q-1.25 -0.703125 -2.921875 -1.234375q-1.65625 -0.546875 -3.828125 -0.9375q-3.453125 -0.703125 -6.015625 -1.84375q-2.5625 -1.15625 -4.296875 -2.890625q-1.71875 -1.734375 -2.5625 -3.9375q-0.828125 -2.203125 -0.828125 -4.953125q0 -2.6875 1.1875 -4.984375q1.1875 -2.3125 3.265625 -4.0q2.078125 -1.703125 4.890625 -2.625q2.8125 -0.9374924 6.078125 -0.9374924q3.453125 0 6.328125 0.9062424q2.890625 0.890625 5.125 2.65625q2.25 1.75 3.71875 4.3125l-4.859375 4.796875q-1.28125 -2.109375 -2.890625 -3.546875q-1.59375 -1.453125 -3.515625 -2.1875q-1.921875 -0.734375 -4.09375 -0.734375q-2.5 0 -4.359375 0.765625q-1.84375 0.765625 -2.90625 2.15625q-1.046875 1.375 -1.046875 3.21875q0 1.34375 0.5 2.46875q0.515625 1.125 1.5625 1.984375q1.0625 0.859375 2.859375 1.53125q1.796875 0.671875 4.28125 1.1875q3.53125 0.765625 6.28125 1.953125q2.75 1.1875 4.671875 2.796875q1.921875 1.59375 2.90625 3.578125q1.0 1.984375 1.0 4.28125q0 4.28125 -1.984375 7.421875q-1.984375 3.140625 -5.640625 4.84375q-3.640625 1.6875 -8.703125 1.6875z" fill-rule="nonzero"/></g></svg>