<svg version="1.1" viewBox="0.0 0.0 300.0 300.0" fill="none" stroke="none" stroke-linecap="square" stroke-miterlimit="10" xmlns:xlink="http://www.w3.org/1999/xlink" xmlns="http://www.w3.org/2000/svg"><clipPath id="p.0"><path d="m0 0l300.0 0l0 300.0l-300.0 0l0 -300.0z" clip-rule="nonzero"/></clipPath><g clip-path="url(#p.0)"><path fill="#000000" fill-opacity="0.0" d="m0 0l300.0 0l0 300.0l-300.0 0z" fill-rule="evenodd"/><path fill="#000000" fill-opacity="0.0" d="m0 92.50394l300.0 0l0 114.99213l-300.0 0z" fill-rule="evenodd"/><path fill="#000000" d="m72.19163 169.68001l0 -40.125l3.171875 0l0 19.1875l21.640625 0l0 -19.1875l3.171875 0l0 40.125l-3.171875 0l0 -18.09375l-21.640625 0l0 18.09375l-3.171875 0zm45.049225 0.21875q-1.375 0 -2.765625 -0.234375q-1.390625 -0.25 -2.625 -0.984375q-1.234375 -0.75 -2.0 -2.25q-0.765625 -1.5 -0.765625 -4.015625l0 -25.140625q0 -2.25 0.65625 -3.71875q0.65625 -1.484375 1.75 -2.359375q1.09375 -0.875 2.4375 -1.25q1.34375 -0.390625 2.703125 -0.390625q3.109375 0.0625 5.921875 0.125q2.828125 0.046875 5.4687424 0.125q2.65625 0.078125 5.171875 0.1875l0 2.46875l-15.906242 0q-2.296875 0 -3.671875 1.234375q-1.359375 1.21875 -1.359375 3.953125l0 10.65625l18.640617 0.28125l0 2.34375l-18.640617 0.28125l0 10.59375q0 2.25 0.796875 3.34375q0.796875 1.09375 2.046875 1.453125q1.265625 0.34375 2.578125 0.34375l15.515617 0l0 2.46875q-2.515625 0.109375 -5.2187424 0.1875q-2.703125 0.078125 -5.390625 0.15625q-2.671875 0.078125 -5.34375 0.140625zm46.9349 -0.21875l-25.359375 -40.125l3.5 0l25.359375 40.125l-3.5 0zm-25.1875 0l12.953125 -20.71875l1.640625 2.734375l-11.09375 17.984375l-3.5 0zm15.625 -18.859375l-1.421875 -3.0l11.046875 -18.265625l3.5 0l-13.125 21.265625zm26.84851 19.078125q-1.375 0 -2.765625 -0.234375q-1.390625 -0.25 -2.625 -0.984375q-1.234375 -0.75 -2.0 -2.25q-0.765625 -1.5 -0.765625 -4.015625l0 -25.140625q0 -2.25 0.65625 -3.71875q0.65625 -1.484375 1.75 -2.359375q1.09375 -0.875 2.4375 -1.25q1.34375 -0.390625 2.703125 -0.390625q3.109375 0.0625 5.921875 0.125q2.828125 0.046875 5.46875 0.125q2.65625 0.078125 5.171875 0.1875l0 2.46875l-15.90625 0q-2.296875 0 -3.671875 1.234375q-1.359375 1.21875 -1.359375 3.953125l0 10.65625l18.640625 0.28125l0 2.34375l-18.640625 0.28125l0 10.59375q0 2.25 0.796875 3.34375q0.796875 1.09375 2.046875 1.453125q1.265625 0.34375 2.578125 0.34375l15.515625 0l0 2.46875q-2.515625 0.109375 -5.21875 0.1875q-2.703125 0.078125 -5.390625 0.15625q-2.671875 0.078125 -5.34375 0.140625zm34.966125 0.109375q-1.140625 0 -2.75 -0.0625q-1.609375 -0.046875 -3.390625 -0.1875q-1.78125 -0.125 -3.34375 -0.265625q-1.546875 -0.140625 -2.53125 -0.359375l0 -2.40625q1.25 0.109375 3.1875 0.21875q1.953125 0.109375 4.21875 0.171875q2.265625 0.046875 4.5 0.046875q2.578125 0 4.703125 -0.515625q2.140625 -0.515625 3.390625 -1.96875q1.265625 -1.453125 1.265625 -4.234375l0 -3.0625q0 -3.0625 -1.53125 -4.703125q-1.53125 -1.640625 -5.03125 -1.640625l-4.640625 0q-4.703125 0 -7.421875 -2.046875q-2.703125 -2.046875 -2.703125 -7.234375l0 -2.359375q0 -5.625 2.953125 -7.890625q2.953125 -2.28125 8.25 -2.28125q1.640625 0 3.796875 0.171875q2.171875 0.15625 4.25 0.375q2.078125 0.21875 3.328125 0.4375l0 2.40625q-2.34375 -0.15625 -5.359375 -0.34375q-3.0 -0.203125 -5.734375 -0.203125q-2.625 0 -4.515625 0.640625q-1.875 0.625 -2.890625 2.234375q-1.015625 1.609375 -1.015625 4.5625l0 2.140625q0 3.65625 1.890625 5.0q1.890625 1.328125 5.21875 1.328125l4.859375 0q3.234375 0 5.3125 1.1875q2.078125 1.171875 3.046875 3.21875q0.984375 2.046875 0.984375 4.671875l0 3.328125q0 3.890625 -1.6875 5.96875q-1.6875 2.078125 -4.484375 2.875q-2.78125 0.78125 -6.125 0.78125z" fill-rule="nonzero"/></g></svg>